<?xml version="1.0" encoding="utf-8"?>
<!-- Svg Vector Icons : http://www.onlinewebfonts.com/icon -->
<!DOCTYPE svg PUBLIC "-//W3C//DTD SVG 1.1//EN" "http://www.w3.org/Graphics/SVG/1.1/DTD/svg11.dtd">
<svg version="1.1" xmlns="http://www.w3.org/2000/svg" xmlns:xlink="http://www.w3.org/1999/xlink" x="0px" y="0px" viewBox="0 0 256 256" enable-background="new 0 0 256 256" xml:space="preserve">
<metadata> Svg Vector Icons : http://www.onlinewebfonts.com/icon </metadata>
<g><g><g><path fill="#000000" d="M52.1,59.3c-9.5,2.3-17.5,10.3-19.7,19.9c-3.9,16.6,8.6,32.6,25.6,32.7c7.7,0.1,14-2.5,19.2-7.8c9-9,10.4-23.1,3.4-33.7C74.5,61.2,62.8,56.6,52.1,59.3z"/><path fill="#000000" d="M120.7,59.3C103.6,63,93,79.7,96.6,97.5c3.9,18.8,22.9,29.5,41.7,23.5c12.4-4,20.7-14.9,21.6-28.4C161.4,71,142.2,54.7,120.7,59.3z"/><path fill="#000000" d="M190.9,59.2C176.7,63,168,77.5,171.5,91.5c1.4,5.4,3.5,9.1,7.4,13c10.8,10.5,28.2,10,38.4-1.2c7.5-8.2,9.1-19.9,4.2-30.3c-0.8-1.7-2.8-4.2-5.1-6.6c-4.1-4.1-7.2-5.9-12.3-7.2C200.4,58.3,194.4,58.3,190.9,59.2z"/><path fill="#000000" d="M51.5,133.8c-17.3,2-31.6,11.3-39.4,25.6l-2.1,3.8v7.1v7.2h22.1c21.8,0,22.1,0,22.1-1c0-0.6,0.8-2.6,1.7-4.5c5.1-10,17-21.6,28.9-28.1l3.7-2l-3.4-2c-3.9-2.3-10.9-4.8-15.8-5.6C64.4,133.5,55.9,133.3,51.5,133.8z"/><path fill="#000000" d="M189,133.8c-6.9,1-14.1,3.4-19.2,6.7l-2.2,1.4l4.5,2.6c9.3,5.3,18.5,13.5,24.2,21.5c2.8,4,5.5,9.2,5.5,10.6c0,0.9,1.4,0.9,22.1,0.9H246l-0.2-7.7l-0.2-7.7l-2.5-4.2c-5.9-9.7-15.9-17.9-26.6-21.5C209.2,133.9,197,132.7,189,133.8z"/><path fill="#000000" d="M115.7,144.9c-21.6,2.9-40,14.4-50.2,31.3l-1.8,3v9.2v9.2H128h64.3v-9c0-10.1,0.1-9.8-3.9-15.5c-9.7-14.1-24.1-23.2-42.8-27.2c-3.8-0.8-7.1-1.1-15.6-1.2C124.1,144.5,117.6,144.6,115.7,144.9z"/></g></g></g>
</svg>